<svg height="1326" width="720" xmlns="http://www.w3.org/2000/svg">
<rect height="1326" fill="#555" width="720"></rect>
<text fill="#7f7" font-family="Courier New" font-size="12" xml:space="preserve">
<tspan x="10" y="26">3 megabytes installed</tspan>
<tspan x="10" y="42"></tspan>
<tspan x="10" y="58">node_modules</tspan>
<tspan x="10" y="74">└─┬ qunitjs@2.3.2 </tspan>
<tspan x="10" y="90">  ├─┬ chokidar@1.6.1 </tspan>
<tspan x="10" y="106">  │ ├─┬ anymatch@1.3.0 </tspan>
<tspan x="10" y="122">  │ │ └── arrify@1.0.1 </tspan>
<tspan x="10" y="138">  │ ├── async-each@1.0.1 </tspan>
<tspan x="10" y="154">  │ ├── glob-parent@2.0.0 </tspan>
<tspan x="10" y="170">  │ ├── inherits@2.0.3 </tspan>
<tspan x="10" y="186">  │ ├─┬ is-binary-path@1.0.1 </tspan>
<tspan x="10" y="202">  │ │ └── binary-extensions@1.8.0 </tspan>
<tspan x="10" y="218">  │ ├─┬ is-glob@2.0.1 </tspan>
<tspan x="10" y="234">  │ │ └── is-extglob@1.0.0 </tspan>
<tspan x="10" y="250">  │ ├── path-is-absolute@1.0.1 </tspan>
<tspan x="10" y="266">  │ └─┬ readdirp@2.1.0 </tspan>
<tspan x="10" y="282">  │   ├── graceful-fs@4.1.11 </tspan>
<tspan x="10" y="298">  │   ├─┬ minimatch@3.0.3 </tspan>
<tspan x="10" y="314">  │   │ └─┬ brace-expansion@1.1.7 </tspan>
<tspan x="10" y="330">  │   │   ├── balanced-match@0.4.2 </tspan>
<tspan x="10" y="346">  │   │   └── concat-map@0.0.1 </tspan>
<tspan x="10" y="362">  │   ├─┬ readable-stream@2.2.9 </tspan>
<tspan x="10" y="378">  │   │ ├── buffer-shims@1.0.0 </tspan>
<tspan x="10" y="394">  │   │ ├── core-util-is@1.0.2 </tspan>
<tspan x="10" y="410">  │   │ ├── isarray@1.0.0 </tspan>
<tspan x="10" y="426">  │   │ ├── process-nextick-args@1.0.7 </tspan>
<tspan x="10" y="442">  │   │ ├── string_decoder@1.0.0 </tspan>
<tspan x="10" y="458">  │   │ └── util-deprecate@1.0.2 </tspan>
<tspan x="10" y="474">  │   └── set-immediate-shim@1.0.1 </tspan>
<tspan x="10" y="490">  ├─┬ commander@2.9.0 </tspan>
<tspan x="10" y="506">  │ └── graceful-readlink@1.0.1 </tspan>
<tspan x="10" y="522">  ├── exists-stat@1.0.0 </tspan>
<tspan x="10" y="538">  ├─┬ findup-sync@0.4.3 </tspan>
<tspan x="10" y="554">  │ ├─┬ detect-file@0.1.0 </tspan>
<tspan x="10" y="570">  │ │ └── fs-exists-sync@0.1.0 </tspan>
<tspan x="10" y="586">  │ ├─┬ micromatch@2.3.11 </tspan>
<tspan x="10" y="602">  │ │ ├─┬ arr-diff@2.0.0 </tspan>
<tspan x="10" y="618">  │ │ │ └── arr-flatten@1.0.3 </tspan>
<tspan x="10" y="634">  │ │ ├── array-unique@0.2.1 </tspan>
<tspan x="10" y="650">  │ │ ├─┬ braces@1.8.5 </tspan>
<tspan x="10" y="666">  │ │ │ ├─┬ expand-range@1.8.2 </tspan>
<tspan x="10" y="682">  │ │ │ │ └─┬ fill-range@2.2.3 </tspan>
<tspan x="10" y="698">  │ │ │ │   ├── is-number@2.1.0 </tspan>
<tspan x="10" y="714">  │ │ │ │   ├── isobject@2.1.0 </tspan>
<tspan x="10" y="730">  │ │ │ │   ├── randomatic@1.1.6 </tspan>
<tspan x="10" y="746">  │ │ │ │   └── repeat-string@1.6.1 </tspan>
<tspan x="10" y="762">  │ │ │ ├── preserve@0.2.0 </tspan>
<tspan x="10" y="778">  │ │ │ └── repeat-element@1.1.2 </tspan>
<tspan x="10" y="794">  │ │ ├─┬ expand-brackets@0.1.5 </tspan>
<tspan x="10" y="810">  │ │ │ └── is-posix-bracket@0.1.1 </tspan>
<tspan x="10" y="826">  │ │ ├── extglob@0.3.2 </tspan>
<tspan x="10" y="842">  │ │ ├── filename-regex@2.0.0 </tspan>
<tspan x="10" y="858">  │ │ ├─┬ kind-of@3.1.0 </tspan>
<tspan x="10" y="874">  │ │ │ └── is-buffer@1.1.5 </tspan>
<tspan x="10" y="890">  │ │ ├─┬ normalize-path@2.1.1 </tspan>
<tspan x="10" y="906">  │ │ │ └── remove-trailing-separator@1.0.1 </tspan>
<tspan x="10" y="922">  │ │ ├─┬ object.omit@2.0.1 </tspan>
<tspan x="10" y="938">  │ │ │ ├─┬ for-own@0.1.5 </tspan>
<tspan x="10" y="954">  │ │ │ │ └── for-in@1.0.2 </tspan>
<tspan x="10" y="970">  │ │ │ └── is-extendable@0.1.1 </tspan>
<tspan x="10" y="986">  │ │ ├─┬ parse-glob@3.0.4 </tspan>
<tspan x="10" y="1002">  │ │ │ ├── glob-base@0.3.0 </tspan>
<tspan x="10" y="1018">  │ │ │ └── is-dotfile@1.0.2 </tspan>
<tspan x="10" y="1034">  │ │ └─┬ regex-cache@0.4.3 </tspan>
<tspan x="10" y="1050">  │ │   ├── is-equal-shallow@0.1.3 </tspan>
<tspan x="10" y="1066">  │ │   └── is-primitive@2.0.0 </tspan>
<tspan x="10" y="1082">  │ └─┬ resolve-dir@0.1.1 </tspan>
<tspan x="10" y="1098">  │   ├─┬ expand-tilde@1.2.2 </tspan>
<tspan x="10" y="1114">  │   │ └── os-homedir@1.0.2 </tspan>
<tspan x="10" y="1130">  │   └─┬ global-modules@0.2.3 </tspan>
<tspan x="10" y="1146">  │     ├─┬ global-prefix@0.1.5 </tspan>
<tspan x="10" y="1162">  │     │ ├─┬ homedir-polyfill@1.0.1 </tspan>
<tspan x="10" y="1178">  │     │ │ └── parse-passwd@1.0.0 </tspan>
<tspan x="10" y="1194">  │     │ ├── ini@1.3.4 </tspan>
<tspan x="10" y="1210">  │     │ └─┬ which@1.2.14 </tspan>
<tspan x="10" y="1226">  │     │   └── isexe@2.0.0 </tspan>
<tspan x="10" y="1242">  │     └── is-windows@0.2.0 </tspan>
<tspan x="10" y="1258">  ├── js-reporters@1.2.0 </tspan>
<tspan x="10" y="1274">  └─┬ walk-sync@0.3.1 </tspan>
<tspan x="10" y="1290">    ├── ensure-posix-path@1.0.2 </tspan>
<tspan x="10" y="1306">    └── matcher-collection@1.0.4</tspan>
</text>
</svg>
